<svg width="24" height="25" viewBox="0 0 24 25" fill="none" xmlns="http://www.w3.org/2000/svg">
<path fill-rule="evenodd" clip-rule="evenodd" d="M21.6509 1.71486C20.1079 0.124181 17.6062 0.124181 16.0631 1.71486L2.00475 16.2071C1.47339 16.755 1.10458 17.4476 0.941562 18.2038L0.239868 21.4588C-0.17838 23.399 1.50062 25.1299 3.3827 24.6988L6.54031 23.9754C7.27388 23.8073 7.94574 23.4271 8.4771 22.8794L22.5354 8.38702C24.0785 6.79635 24.0785 4.21736 22.5354 2.62667L21.6509 1.71486ZM17.9257 3.63497C18.44 3.10475 19.274 3.10475 19.7883 3.63497L20.6728 4.5468C21.1871 5.07702 21.1871 5.93669 20.6728 6.46691L18.1419 9.07589L15.3948 6.24397L17.9257 3.63497ZM13.5322 8.16408L3.86736 18.1274C3.69024 18.3099 3.56731 18.5408 3.51297 18.7928L2.81127 22.048L5.96889 21.3246C6.21342 21.2686 6.43737 21.1418 6.61449 20.9592L16.2793 10.996L13.5322 8.16408Z" fill="#0F0F0F"/>
</svg>
