<svg width="20" height="19" viewBox="0 0 20 19" stroke="none" fill="#FF9922" xmlns="http://www.w3.org/2000/svg">
<path fill-rule="evenodd" clip-rule="evenodd" d="M4.9627 0.252963C5.3023 0.590231 5.3023 1.13705 4.9627 1.47432L2.96889 3.45455H12.1739C16.4962 3.45455 20 6.93452 20 11.2273C20 15.5201 16.4962 19 12.1739 19H5.21739C4.73715 19 4.34783 18.6133 4.34783 18.1364C4.34783 17.6595 4.73715 17.2727 5.21739 17.2727H12.1739C15.5357 17.2727 18.2609 14.5661 18.2609 11.2273C18.2609 7.88846 15.5357 5.18182 12.1739 5.18182H2.96889L4.9627 7.16205C5.3023 7.49932 5.3023 8.04614 4.9627 8.38341C4.62312 8.72069 4.07254 8.72069 3.73296 8.38341L0.2547 4.92886C-0.0849 4.59159 -0.0849 4.04478 0.2547 3.70751L3.73296 0.252963C4.07254 -0.0843211 4.62312 -0.0843211 4.9627 0.252963Z" />
</svg>
