<svg width="15" height="15" viewBox="0 0 22 22" fill="none" xmlns="http://www.w3.org/2000/svg">
<path fill-rule="evenodd" clip-rule="evenodd" d="M10 21C9.47634 21 9.0296 20.621 8.94432 20.1043C8.86579 19.6863 8.56484 19.3447 8.16001 19.2143C7.83015 19.101 7.50762 18.9674 7.1943 18.8143C6.82146 18.6236 6.3742 18.6521 6.02859 18.8886C5.61034 19.1893 5.03579 19.1427 4.67144 18.7786L3.2543 17.3614C2.87291 16.98 2.82335 16.3787 3.13716 15.94C3.37916 15.5864 3.41402 15.1306 3.22859 14.7443C3.1064 14.476 2.99862 14.2013 2.90573 13.9214C2.77267 13.4804 2.40542 13.1501 1.95286 13.0643C1.40713 12.9771 1.00425 12.5084 1.00001 11.9557V10.1829C0.997113 9.54586 1.45722 9.001 2.08573 8.89714C2.56253 8.80643 2.96067 8.47986 3.14287 8.03C3.19716 7.90333 3.2543 7.77761 3.3143 7.65286C3.55661 7.18634 3.52315 6.62444 3.22715 6.19C2.857 5.67554 2.91383 4.9687 3.36144 4.52L4.40287 3.47857C4.91651 2.96474 5.72659 2.89824 6.31716 3.32143L6.35001 3.34429C6.79099 3.64109 7.35213 3.69484 7.84144 3.48714C8.36491 3.29873 8.75077 2.84891 8.85714 2.30286L8.8715 2.25429C8.98901 1.53139 9.61333 1.0003 10.3458 1H11.6029C12.355 0.999657 12.9969 1.54367 13.12 2.28571L13.1429 2.38571C13.2438 2.90881 13.6097 3.34174 14.1086 3.52857C14.5895 3.73496 15.1424 3.68106 15.5744 3.38571L15.6457 3.33429C16.2516 2.89763 17.0847 2.96479 17.6129 3.49286L18.5714 4.45286C19.0519 4.93594 19.1122 5.69561 18.7143 6.24857C18.4025 6.71074 18.3628 7.30464 18.61 7.80429L18.6715 7.94714C18.8716 8.435 19.3049 8.78857 19.8229 8.88714C20.4999 8.99757 20.9978 9.58129 21 10.2671V11.8571C20.9999 12.462 20.5623 12.978 19.9657 13.0771C19.475 13.1713 19.0753 13.5266 18.9242 14.0029C18.8576 14.1933 18.7833 14.3839 18.7014 14.5743C18.5108 14.9929 18.5531 15.4806 18.8129 15.86C19.1556 16.3369 19.1024 16.9919 18.6872 17.4071L17.3572 18.7386C16.9768 19.1189 16.377 19.1679 15.9401 18.8543C15.5752 18.605 15.1027 18.5776 14.7115 18.7829C14.4327 18.921 14.1465 19.0436 13.8544 19.15C13.4457 19.291 13.1445 19.6407 13.0658 20.0657C12.9824 20.6004 12.524 20.996 11.9829 21H10Z" stroke="black" stroke-width="2" stroke-linecap="round" stroke-linejoin="round"/>
<path fill-rule="evenodd" clip-rule="evenodd" d="M14.3332 10.9998C14.3332 12.8405 12.8411 14.3327 11.0003 14.3327C9.1596 14.3327 7.66748 12.8405 7.66748 10.9998C7.66748 9.15909 9.1596 7.66693 11.0003 7.66693C12.8411 7.66693 14.3332 9.15909 14.3332 10.9998Z" stroke="black" stroke-width="2" stroke-linecap="round" stroke-linejoin="round"/>
</svg>
