<svg width="26" height="24" viewBox="0 0 26 24" fill="currentColor" xmlns="http://www.w3.org/2000/svg">
<path d="M9.59665 4.61982C11.0958 2.20661 11.8454 1 12.9661 1C14.0868 1 14.8364 2.2066 16.3355 4.61981L16.7233 5.24414C17.1494 5.9299 17.3623 6.27278 17.6946 6.49902C18.0267 6.72525 18.4402 6.80923 19.2675 6.97719L20.0208 7.1301C22.9319 7.72116 24.3876 8.01668 24.7339 9.01596C25.0802 10.0152 24.0879 11.0565 22.1031 13.139L21.5897 13.6777C21.0257 14.2695 20.7437 14.5654 20.6168 14.9315C20.4901 15.2976 20.5327 15.6923 20.6179 16.4819L20.6955 17.2007C20.9956 19.9792 21.1456 21.3685 20.239 21.986C19.3323 22.6036 17.9694 22.0405 15.2436 20.9144L14.5385 20.623C13.7639 20.303 13.3767 20.143 12.9661 20.143C12.5555 20.143 12.1682 20.303 11.3937 20.623L10.6885 20.9144C7.96275 22.0405 6.59987 22.6036 5.69322 21.986C4.78657 21.3685 4.9366 19.9792 5.23666 17.2007L5.31428 16.4819C5.39955 15.6923 5.44218 15.2976 5.31532 14.9315C5.18846 14.5654 4.90648 14.2695 4.34249 13.6777L3.82904 13.139C1.84436 11.0565 0.852021 10.0152 1.19833 9.01596C1.54465 8.01668 3.00025 7.72116 5.91146 7.1301L6.66462 6.97719C7.49189 6.80923 7.90553 6.72525 8.23765 6.49902C8.56977 6.27278 8.78279 5.92991 9.20881 5.24414L9.59665 4.61982Z" stroke="#FF9922" stroke-width="2"/>
</svg>
